REM DIRINDEX 1\5,1\2\6,1\2\7,1\3\8,1\3\9,1\4\10,1\4\11,1\4\12
REM DIRNAME folder01,folder02,folder03,folder04,folder05,folder06,folder07,folder08,folder09,folder10,folder11,folder12
TITLE ""
FILE "EJE_DB3000_5th_6C_30.mp3" MP3
  TRACK 01 AUDIO
    TITLE "0:"
    INDEX 01 00:00:00
  TRACK 02 AUDIO
    TITLE "10:cjc026_11310"
    INDEX 01 00:00:05
  TRACK 03 AUDIO
    TITLE "0:"
    INDEX 01 00:00:74
  TRACK 04 AUDIO
    TITLE "11:cjc026_11311"
    INDEX 01 00:01:24
  TRACK 05 AUDIO
    TITLE "0:"
    INDEX 01 00:02:28
  TRACK 06 AUDIO
    TITLE "12:cjc026_11312"
    INDEX 01 00:02:53
  TRACK 07 AUDIO
    TITLE "0:"
    INDEX 01 00:03:47
  TRACK 08 AUDIO
    TITLE "10:cjc026_11313"
    INDEX 01 00:03:74
  TRACK 09 AUDIO
    TITLE "0:"
    INDEX 01 00:04:68
  TRACK 10 AUDIO
    TITLE "11:cjc026_11314"
    INDEX 01 00:05:18
  TRACK 11 AUDIO
    TITLE "0:"
    INDEX 01 00:06:10
  TRACK 12 AUDIO
    TITLE "12:cjc026_11315"
    INDEX 01 00:06:35
  TRACK 13 AUDIO
    TITLE "0:"
    INDEX 01 00:07:31
  TRACK 14 AUDIO
    TITLE "10:cjc026_11316"
    INDEX 01 00:07:56
  TRACK 15 AUDIO
    TITLE "0:"
    INDEX 01 00:08:56
  TRACK 16 AUDIO
    TITLE "11:cjc026_11317"
    INDEX 01 00:09:10
  TRACK 17 AUDIO
    TITLE "0:"
    INDEX 01 00:10:16
  TRACK 18 AUDIO
    TITLE "12:cjc026_11318"
    INDEX 01 00:10:41
  TRACK 19 AUDIO
    TITLE "0:"
    INDEX 01 00:11:42
  TRACK 20 AUDIO
    TITLE "10:cjc026_11319"
    INDEX 01 00:11:70
  TRACK 21 AUDIO
    TITLE "0:"
    INDEX 01 00:12:61
  TRACK 22 AUDIO
    TITLE "11:cjc026_11320"
    INDEX 01 00:13:14
  TRACK 23 AUDIO
    TITLE "0:"
    INDEX 01 00:14:13
  TRACK 24 AUDIO
    TITLE "12:cjc026_11321"
    INDEX 01 00:14:39
  TRACK 25 AUDIO
    TITLE "0:"
    INDEX 01 00:15:32
  TRACK 26 AUDIO
    TITLE "10:cjc026_11322"
    INDEX 01 00:15:58
  TRACK 27 AUDIO
    TITLE "0:"
    INDEX 01 00:16:59
  TRACK 28 AUDIO
    TITLE "11:cjc026_11323"
    INDEX 01 00:17:08
  TRACK 29 AUDIO
    TITLE "0:"
    INDEX 01 00:18:19
  TRACK 30 AUDIO
    TITLE "12:cjc026_11324"
    INDEX 01 00:18:46
  TRACK 31 AUDIO
    TITLE "0:"
    INDEX 01 00:19:48
  TRACK 32 AUDIO
    TITLE "10:cjc026_11325"
    INDEX 01 00:19:73
  TRACK 33 AUDIO
    TITLE "0:"
    INDEX 01 00:21:00
  TRACK 34 AUDIO
    TITLE "11:cjc026_11326"
    INDEX 01 00:21:27
  TRACK 35 AUDIO
    TITLE "0:"
    INDEX 01 00:22:27
  TRACK 36 AUDIO
    TITLE "12:cjc026_11327"
    INDEX 01 00:22:54
  TRACK 37 AUDIO
    TITLE "0:"
    INDEX 01 00:23:53
  TRACK 38 AUDIO
    TITLE "10:cjc026_11328"
    INDEX 01 00:24:06
  TRACK 39 AUDIO
    TITLE "0:"
    INDEX 01 00:24:74
  TRACK 40 AUDIO
    TITLE "11:cjc026_11329"
    INDEX 01 00:25:25
  TRACK 41 AUDIO
    TITLE "0:"
    INDEX 01 00:26:46
  TRACK 42 AUDIO
    TITLE "12:cjc026_11330"
    INDEX 01 00:26:71
  TRACK 43 AUDIO
    TITLE "0:"
    INDEX 01 00:27:65
  TRACK 44 AUDIO
    TITLE "10:cjc026_11331"
    INDEX 01 00:28:15
  TRACK 45 AUDIO
    TITLE "0:"
    INDEX 01 00:29:13
  TRACK 46 AUDIO
    TITLE "11:cjc026_11332"
    INDEX 01 00:29:40
  TRACK 47 AUDIO
    TITLE "0:"
    INDEX 01 00:30:55
  TRACK 48 AUDIO
    TITLE "12:cjc026_11333"
    INDEX 01 00:31:06
  TRACK 49 AUDIO
    TITLE "0:"
    INDEX 01 00:32:03
  TRACK 50 AUDIO
    TITLE "10:cjc026_11334"
    INDEX 01 00:32:29
  TRACK 51 AUDIO
    TITLE "0:"
    INDEX 01 00:33:28
  TRACK 52 AUDIO
    TITLE "11:cjc026_11335"
    INDEX 01 00:33:56
  TRACK 53 AUDIO
    TITLE "0:"
    INDEX 01 00:34:73
  TRACK 54 AUDIO
    TITLE "12:cjc026_11336"
    INDEX 01 00:35:23
  TRACK 55 AUDIO
    TITLE "0:"
    INDEX 01 00:36:23
  TRACK 56 AUDIO
    TITLE "10:cjc026_11337"
    INDEX 01 00:36:48
  TRACK 57 AUDIO
    TITLE "0:"
    INDEX 01 00:37:48
  TRACK 58 AUDIO
    TITLE "11:cjc026_11338"
    INDEX 01 00:37:73
  TRACK 59 AUDIO
    TITLE "0:"
    INDEX 01 00:38:65
  TRACK 60 AUDIO
    TITLE "12:cjc026_11339"
    INDEX 01 00:39:15
  TRACK 61 AUDIO
    TITLE "0:"
    INDEX 01 00:40:15
  TRACK 62 AUDIO
    TITLE "10:cjc026_11340"
    INDEX 01 00:40:40
  TRACK 63 AUDIO
    TITLE "0:"
    INDEX 01 00:41:38
  TRACK 64 AUDIO
    TITLE "11:cjc026_11341"
    INDEX 01 00:41:63
  TRACK 65 AUDIO
    TITLE "0:"
    INDEX 01 00:43:70
  TRACK 66 AUDIO
    TITLE "12:cjc026_11342"
    INDEX 01 00:44:20
  TRACK 67 AUDIO
    TITLE "0:"
    INDEX 01 00:45:18
  TRACK 68 AUDIO
    TITLE "10:cjc026_11343"
    INDEX 01 00:45:41
  TRACK 69 AUDIO
    TITLE "0:"
    INDEX 01 00:46:45
  TRACK 70 AUDIO
    TITLE "11:cjc026_11344"
    INDEX 01 00:46:72
  TRACK 71 AUDIO
    TITLE "0:"
    INDEX 01 00:48:20
  TRACK 72 AUDIO
    TITLE "12:cjc026_11345"
    INDEX 01 00:48:46
  TRACK 73 AUDIO
    TITLE "0:"
    INDEX 01 00:49:47
  TRACK 74 AUDIO
    TITLE "10:cjc026_11346"
    INDEX 01 00:49:74
  TRACK 75 AUDIO
    TITLE "0:"
    INDEX 01 00:50:70
  TRACK 76 AUDIO
    TITLE "11:cjc026_11347"
    INDEX 01 00:51:24
  TRACK 77 AUDIO
    TITLE "0:"
    INDEX 01 00:52:51
  TRACK 78 AUDIO
    TITLE "12:cjc026_11348"
    INDEX 01 00:53:04
  TRACK 79 AUDIO
    TITLE "0:"
    INDEX 01 00:54:01
  TRACK 80 AUDIO
    TITLE "10:cjc026_11349"
    INDEX 01 00:54:27
  TRACK 81 AUDIO
    TITLE "0:"
    INDEX 01 00:55:26
  TRACK 82 AUDIO
    TITLE "11:cjc026_11350"
    INDEX 01 00:55:53
  TRACK 83 AUDIO
    TITLE "0:"
    INDEX 01 00:56:65
  TRACK 84 AUDIO
    TITLE "12:cjc026_11351"
    INDEX 01 00:57:15
  TRACK 85 AUDIO
    TITLE "0:"
    INDEX 01 00:58:15
